<?xml version="1.0" encoding="UTF-8" standalone="no"?>
<svg
   xmlns:dc="http://purl.org/dc/elements/1.1/"
   xmlns:cc="http://creativecommons.org/ns#"
   xmlns:rdf="http://www.w3.org/1999/02/22-rdf-syntax-ns#"
   xmlns:svg="http://www.w3.org/2000/svg"
   xmlns="http://www.w3.org/2000/svg"
   width="800mm"
   height="800mm"
   viewBox="0 0 2834.6457 2834.6457"
   id="svg2"
   version="1.1">
  <defs
     id="defs4" />
  <metadata
     id="metadata7">
    <rdf:RDF>
      <cc:Work
         rdf:about="">
        <dc:format>image/svg+xml</dc:format>
        <dc:type
           rdf:resource="http://purl.org/dc/dcmitype/StillImage" />
        <dc:title></dc:title>
      </cc:Work>
    </rdf:RDF>
  </metadata>
  <g
     id="layer1"
     transform="translate(0,1782.2835)">
    <g
       id="g4167"
       transform="matrix(0.91453305,-0.91453305,0.91453305,0.91453305,636.76233,1390.6162)">
      <g
         id="g4866"
         transform="matrix(0.76812311,-0.64030217,0.64030217,0.76812311,626.99564,719.87894)">
        <g
           id="g16060"
           transform="matrix(0.72547616,-0.70455882,0.70455882,0.72547616,800.32249,710.96371)">
          <g
             id="g16121"
             transform="translate(78.092071,12.331406)">
            <g
               id="g16797"
               transform="matrix(1.5454197,0,0,1.5454197,-568.24352,191.42922)">
              <path
                 id="rect16787"
                 d="m 1143.8281,-967.89844 c -21.3428,0.2252 -42.462,9.54832 -56.8066,27.27735 l -424.88869,525.13671 c -25.50145,31.51827 -20.55147,78.4302 10.9668,103.93165 l 363.37669,294.008283 c 31.5183,25.5014676 78.4701,20.5836829 103.9317,-10.966796 l 222.3398,-274.800777 0,-0.004 0.029,-0.0371 c 10.8043,-13.29128 17.4863,-21.87044 21.4727,-25.20703 3.9914,-3.34077 4.8428,-4.08792 14.8047,-4.41602 0.096,-0.003 0.1927,-0.007 0.289,-0.0117 l 68.8291,-2.65616 c 12.2468,-0.27096 24.2236,-2.39428 35.1494,-8.9493 13.9051,-8.34249 23.631,-20.36149 37.3067,-38.06055 l 0.041,-0.0508 93.332,-115.35352 c 25.5014,-31.51836 20.5515,-78.42826 -10.9668,-103.92969 l -432.0857,-349.60008 c -13.7892,-11.15684 -30.525,-16.4857 -47.125,-16.31055 z m 3,45.62305 c 5.3334,0.49861 10.6296,2.59386 15.2715,6.34961 l 385.163,311.63494 -220.1105,272.04324 -0.033,0.041 -222.373,274.839858 c -10.0152,12.378232 -27.0377,14.175526 -39.4161,4.160156 L 701.95508,-347.21484 c -12.37831,-10.01534 -14.17547,-27.03575 -4.16016,-39.41407 l 424.88868,-525.13867 c 6.2596,-7.73647 15.2556,-11.33883 24.1445,-10.50781 z"
                 style="color:#000000;font-style:normal;font-variant:normal;font-weight:normal;font-stretch:normal;font-size:medium;line-height:normal;font-family:sans-serif;text-indent:0;text-align:start;text-decoration:none;text-decoration-line:none;text-decoration-style:solid;text-decoration-color:#000000;letter-spacing:normal;word-spacing:normal;text-transform:none;writing-mode:lr-tb;direction:ltr;baseline-shift:baseline;text-anchor:start;white-space:normal;clip-rule:nonzero;display:inline;overflow:visible;visibility:visible;opacity:1;isolation:auto;mix-blend-mode:normal;color-interpolation:sRGB;color-interpolation-filters:linearRGB;solid-color:#000000;solid-opacity:1;fill:#ffb500;fill-opacity:1;fill-rule:nonzero;stroke:none;stroke-width:45.87316895;stroke-linecap:butt;stroke-linejoin:round;stroke-miterlimit:4;stroke-dasharray:none;stroke-dashoffset:0;stroke-opacity:1;color-rendering:auto;image-rendering:auto;shape-rendering:auto;text-rendering:auto;enable-background:accumulate" />
              <path
                 id="rect16789"
                 d="M 1387.9112,-545.56828 963.02189,-20.430415 c -17.75838,21.9482948 -45.6688,20.30892978 -62.57942,-3.675717 L 686.28534,-327.84924 c -16.91062,-23.98464 -16.22812,-60.96315 1.53026,-82.91144 l 424.8893,-525.13786 c 17.7584,-21.94829 45.6688,-20.30889 62.5794,3.67574 l 214.1572,303.7431 c 16.9106,23.98465 16.2281,60.96316 -1.5303,82.91142 z"
                 style="opacity:1;fill:#ffb500;fill-opacity:1;fill-rule:nonzero;stroke:#ffb500;stroke-width:45.87316895;stroke-linecap:butt;stroke-linejoin:round;stroke-miterlimit:4;stroke-dasharray:none;stroke-opacity:1" />
            </g>
          </g>
        </g>
      </g>
    </g>
  </g>
</svg>
